<svg width="27" height="29" viewBox="0 0 27 29" fill="none" xmlns="http://www.w3.org/2000/svg">
<path d="M11.0258 1.04213C11.154 1.10568 11.2666 1.19685 11.3553 1.30907C11.4441 1.4213 11.5069 1.5518 11.5392 1.69119C11.5741 1.84425 12.5312 5.94013 12.5312 8.6875C12.5312 10.5281 11.6749 12.1692 10.3419 13.2329C9.8575 13.6204 9.625 14.0428 9.625 14.3954V15.337C9.625 15.3822 9.62758 15.4248 9.63275 15.4649C9.69863 15.9454 9.93694 17.7298 10.1598 19.5801C10.3787 21.3956 10.5938 23.3757 10.5938 24.1875C10.5937 25.2152 10.1855 26.2008 9.45879 26.9275C8.73209 27.6542 7.74646 28.0625 6.71875 28.0625C5.69104 28.0625 4.70541 27.6542 3.97871 26.9275C3.25201 26.2008 2.84375 25.2152 2.84375 24.1875C2.84375 23.3738 3.05881 21.3975 3.27775 19.5801C3.50056 17.7298 3.73888 15.9454 3.80475 15.4649L3.8125 15.337V14.3954C3.8125 14.0428 3.58 13.6204 3.09563 13.2329C2.41262 12.6884 1.8611 11.997 1.48207 11.2101C1.10303 10.4232 0.906212 9.56096 0.90625 8.6875C0.90625 5.94982 1.85563 1.87525 1.89825 1.69313C1.94862 1.47776 2.07047 1.2858 2.24394 1.14858C2.41741 1.01135 2.63225 0.936948 2.85344 0.937503C3.39594 0.937503 3.83575 1.37732 3.83575 1.91982V7.72844C3.82811 7.85928 3.84737 7.9903 3.89234 8.1134C3.93731 8.23651 4.00703 8.34909 4.09721 8.4442C4.18738 8.53931 4.29609 8.61493 4.41663 8.66638C4.53717 8.71784 4.66698 8.74405 4.79804 8.74338C4.9291 8.74272 5.05863 8.7152 5.17864 8.66253C5.29865 8.60985 5.40659 8.53314 5.4958 8.43712C5.58501 8.3411 5.65359 8.22782 5.69731 8.10427C5.74103 7.98071 5.75896 7.84951 5.75 7.71875V1.90625C5.75 1.64932 5.85206 1.40292 6.03374 1.22124C6.21542 1.03957 6.46182 0.937503 6.71875 0.937503C6.97568 0.937503 7.22208 1.03957 7.40376 1.22124C7.58544 1.40292 7.6875 1.64932 7.6875 1.90625V7.76913C7.6929 8.02349 7.79911 8.26529 7.98279 8.44133C8.16646 8.61737 8.41255 8.71324 8.66691 8.70785C8.92127 8.70245 9.16306 8.59623 9.33911 8.41256C9.51515 8.22888 9.61102 7.9828 9.60562 7.72844V1.91594C9.60562 1.37538 10.0435 0.937503 10.586 0.937503C10.6286 0.937503 10.8185 0.937503 11.0258 1.04213ZM15.4375 9.65625C15.4375 7.3439 16.3561 5.12625 17.9912 3.49117C19.6262 1.85608 21.8439 0.937503 24.1562 0.937503C24.4132 0.937503 24.6596 1.03957 24.8413 1.22124C25.0229 1.40292 25.125 1.64932 25.125 1.90625V13.4789L25.1618 13.8219C25.3159 15.2679 25.4638 16.7146 25.6055 18.1619C25.8438 20.5954 26.0938 23.3234 26.0938 24.1875C26.0938 25.2152 25.6855 26.2008 24.9588 26.9275C24.2321 27.6542 23.2465 28.0625 22.2188 28.0625C21.191 28.0625 20.2054 27.6542 19.4787 26.9275C18.752 26.2008 18.3438 25.2152 18.3438 24.1875C18.3438 23.3234 18.5937 20.5954 18.832 18.1619C18.9541 16.9277 19.0761 15.7458 19.1672 14.8701L19.2059 14.5H17.375C16.8611 14.5 16.3683 14.2959 16.005 13.9325C15.6416 13.5692 15.4375 13.0764 15.4375 12.5625V9.65625Z" fill="#636363"/>
</svg>
