<svg width="38" height="31" viewBox="0 0 38 31" fill="none" xmlns="http://www.w3.org/2000/svg">
<path d="M7.23821 21.4615V16.6923H11.9429V21.4615H7.23821ZM30.7618 3.56262C30.7581 2.61644 30.3847 1.7103 29.7233 1.04259C29.062 0.374881 28.1666 -7.5694e-06 27.2333 1.14627e-10H3.52854C2.59271 1.14627e-10 1.69521 0.376853 1.03348 1.04766C0.371755 1.71846 0 2.62826 0 3.57692V25.0385C0 26.6196 0.619593 28.1359 1.72247 29.2539C2.82536 30.3719 4.32119 31 5.8809 31H32.1191C33.6788 31 35.1746 30.3719 36.2775 29.2539C37.3804 28.1359 38 26.6196 38 25.0385V10.7308C38 9.78211 37.6282 8.87231 36.9665 8.2015C36.3048 7.5307 35.4073 7.15385 34.4715 7.15385H33.1142V24.3946C33.1142 24.7108 32.9902 25.0141 32.7697 25.2377C32.5491 25.4613 32.2499 25.5869 31.938 25.5869C31.626 25.5869 31.3269 25.4613 31.1063 25.2377C30.8857 25.0141 30.7618 24.7108 30.7618 24.3946V3.56262ZM4.88585 8.34615C4.88585 8.02993 5.00977 7.72667 5.23034 7.50307C5.45092 7.27946 5.75009 7.15385 6.06203 7.15385H24.8809C25.1928 7.15385 25.492 7.27946 25.7126 7.50307C25.9332 7.72667 26.0571 8.02993 26.0571 8.34615C26.0571 8.66237 25.9332 8.96564 25.7126 9.18924C25.492 9.41284 25.1928 9.53846 24.8809 9.53846H6.06203C5.75009 9.53846 5.45092 9.41284 5.23034 9.18924C5.00977 8.96564 4.88585 8.66237 4.88585 8.34615ZM17.8238 14.3077H24.8809C25.1928 14.3077 25.492 14.4333 25.7126 14.6569C25.9332 14.8805 26.0571 15.1838 26.0571 15.5C26.0571 15.8162 25.9332 16.1195 25.7126 16.3431C25.492 16.5667 25.1928 16.6923 24.8809 16.6923H17.8238C17.5119 16.6923 17.2127 16.5667 16.9921 16.3431C16.7716 16.1195 16.6476 15.8162 16.6476 15.5C16.6476 15.1838 16.7716 14.8805 16.9921 14.6569C17.2127 14.4333 17.5119 14.3077 17.8238 14.3077ZM16.6476 22.6538C16.6476 22.3376 16.7716 22.0344 16.9921 21.8108C17.2127 21.5872 17.5119 21.4615 17.8238 21.4615H24.8809C25.1928 21.4615 25.492 21.5872 25.7126 21.8108C25.9332 22.0344 26.0571 22.3376 26.0571 22.6538C26.0571 22.9701 25.9332 23.2733 25.7126 23.4969C25.492 23.7205 25.1928 23.8462 24.8809 23.8462H17.8238C17.5119 23.8462 17.2127 23.7205 16.9921 23.4969C16.7716 23.2733 16.6476 22.9701 16.6476 22.6538ZM6.06203 14.3077H13.1191C13.431 14.3077 13.7302 14.4333 13.9508 14.6569C14.1714 14.8805 14.2953 15.1838 14.2953 15.5V22.6538C14.2953 22.9701 14.1714 23.2733 13.9508 23.4969C13.7302 23.7205 13.431 23.8462 13.1191 23.8462H6.06203C5.75009 23.8462 5.45092 23.7205 5.23034 23.4969C5.00977 23.2733 4.88585 22.9701 4.88585 22.6538V15.5C4.88585 15.1838 5.00977 14.8805 5.23034 14.6569C5.45092 14.4333 5.75009 14.3077 6.06203 14.3077Z" fill="#636363"/>
</svg>
