<svg width="31" height="30" viewBox="0 0 31 30" fill="none" xmlns="http://www.w3.org/2000/svg">
<path fill-rule="evenodd" clip-rule="evenodd" d="M18.5752 0.813C18.71 1.0665 18.7441 1.392 18.8108 2.043C18.9379 3.273 19.0014 3.888 19.268 4.227C19.4342 4.43748 19.6549 4.60165 19.9078 4.70282C20.1607 4.80399 20.4368 4.83856 20.708 4.803C21.142 4.7475 21.638 4.356 22.6269 3.573C23.1492 3.1575 23.4112 2.9505 23.6917 2.8635C24.0491 2.75301 24.4357 2.77166 24.7798 2.916C25.0511 3.03 25.2914 3.261 25.7672 3.723L27.1529 5.064C27.6303 5.526 27.869 5.757 27.9868 6.0195C28.136 6.35258 28.1552 6.72671 28.041 7.0725C27.9511 7.344 27.7372 7.5975 27.3094 8.103C26.4988 9.0615 26.0943 9.54 26.0354 9.9615C25.9991 10.2238 26.0352 10.4908 26.14 10.7353C26.2448 10.9798 26.4146 11.1931 26.6321 11.3535C26.9808 11.6115 27.6179 11.673 28.8904 11.796C29.5616 11.8605 29.8979 11.8935 30.1614 12.024C30.4939 12.1908 30.7526 12.4684 30.8899 12.8055C31 13.071 31 13.398 31 14.052V15.948C31 16.602 31 16.929 30.8915 17.193C30.7537 17.5312 30.4937 17.8094 30.1599 17.976C29.8979 18.1065 29.5616 18.1395 28.8889 18.204C27.6179 18.327 26.9824 18.3885 26.6321 18.6465C26.4146 18.8072 26.245 19.0209 26.1404 19.2656C26.0359 19.5104 26.0002 19.7776 26.0369 20.04C26.0958 20.46 26.5003 20.94 27.3094 21.897C27.7372 22.4025 27.9511 22.6545 28.041 22.9275C28.1552 23.2733 28.136 23.6474 27.9868 23.9805C27.869 24.243 27.6303 24.474 27.1529 24.936L25.7672 26.2755C25.2898 26.739 25.0511 26.97 24.7798 27.0825C24.4357 27.2268 24.0491 27.2455 23.6917 27.135C23.4112 27.048 23.1492 26.841 22.6269 26.427C21.6364 25.644 21.142 25.2525 20.708 25.197C20.4368 25.1614 20.1607 25.196 19.9078 25.2972C19.6549 25.3983 19.4342 25.5625 19.268 25.773C19.0014 26.1105 18.9379 26.7255 18.8108 27.957C18.7441 28.608 18.71 28.9335 18.5752 29.187C18.4034 29.5098 18.1165 29.7614 17.7677 29.895C17.4933 30 17.1554 30 16.4796 30H14.5204C13.8446 30 13.5067 30 13.2339 29.895C12.8845 29.7617 12.5969 29.5101 12.4248 29.187C12.2899 28.9335 12.2559 28.608 12.1892 27.957C12.0621 26.727 11.9985 26.112 11.7319 25.773C11.566 25.5628 11.3455 25.3987 11.0929 25.2976C10.8403 25.1964 10.5645 25.1617 10.2935 25.197C9.858 25.2525 9.36355 25.644 8.3731 26.427C7.85075 26.8425 7.5888 27.0495 7.30825 27.1365C6.95093 27.247 6.56434 27.2283 6.22015 27.084C5.9489 26.97 5.70865 26.739 5.2328 26.277L3.8471 24.936C3.3697 24.474 3.131 24.243 3.0132 23.9805C2.86405 23.6474 2.84477 23.2733 2.95895 22.9275C3.04885 22.656 3.26275 22.4025 3.69055 21.897C4.5012 20.9385 4.90575 20.46 4.9631 20.0385C4.99956 19.7763 4.9637 19.5094 4.85917 19.2649C4.75464 19.0205 4.58515 18.8071 4.3679 18.6465C4.01915 18.3885 3.3821 18.327 2.10955 18.204C1.4384 18.1395 1.10205 18.1065 0.83855 17.976C0.506148 17.8092 0.247374 17.5316 0.11005 17.1945C1.49012e-07 16.929 0 16.602 0 15.948V14.052C0 13.398 -1.04308e-07 13.071 0.1085 12.807C0.246275 12.4688 0.506253 12.1906 0.8401 12.024C1.10205 11.8935 1.4384 11.8605 2.1111 11.796C3.3821 11.673 4.01915 11.6115 4.3679 11.3535C4.58543 11.1931 4.75522 10.9798 4.86003 10.7353C4.96484 10.4908 5.00093 10.2238 4.96465 9.9615C4.90575 9.54 4.49965 9.0615 3.69055 8.1015C3.26275 7.596 3.04885 7.344 2.95895 7.071C2.84477 6.72521 2.86405 6.35108 3.0132 6.018C3.131 5.757 3.3697 5.5245 3.8471 5.0625L5.2328 3.723C5.7102 3.261 5.9489 3.0285 6.22015 2.916C6.56434 2.77166 6.95093 2.75301 7.30825 2.8635C7.5888 2.9505 7.85075 3.1575 8.3731 3.5715C9.36355 4.3545 9.858 4.746 10.292 4.803C10.5636 4.83867 10.8401 4.80401 11.0933 4.70256C11.3465 4.60111 11.5674 4.4365 11.7335 4.2255C11.997 3.888 12.0621 3.273 12.1892 2.0415C12.2559 1.392 12.2899 1.0665 12.4248 0.8115C12.5969 0.489257 12.8838 0.238265 13.2323 0.105C13.5067 -1.04308e-07 13.8446 0 14.5204 0H16.4796C17.1554 0 17.4933 -1.04308e-07 17.7661 0.105C18.1155 0.238331 18.4031 0.489922 18.5752 0.813ZM15.5 21C17.1443 21 18.7213 20.3679 19.8841 19.2426C21.0468 18.1174 21.7 16.5913 21.7 15C21.7 13.4087 21.0468 11.8826 19.8841 10.7574C18.7213 9.63214 17.1443 9 15.5 9C13.8557 9 12.2787 9.63214 11.1159 10.7574C9.95321 11.8826 9.3 13.4087 9.3 15C9.3 16.5913 9.95321 18.1174 11.1159 19.2426C12.2787 20.3679 13.8557 21 15.5 21Z" fill="#636363"/>
</svg>
